<svg width="26" height="25" viewBox="0 0 26 25" fill="none" xmlns="http://www.w3.org/2000/svg">
<path d="M1.45368 0.622371C1.03136 0.705927 0.653174 0.993513 0.402326 1.42186C0.151477 1.85022 0.0485136 2.38424 0.116086 2.90647C0.183658 3.42869 0.41623 3.89633 0.76264 4.20652C1.10905 4.5167 1.54092 4.64402 1.96325 4.56047H6.74038L7.02701 5.54499L8.33276 10.4676L9.63851 15.3902C9.7659 15.9022 10.3073 16.3748 10.7213 16.3748H21.868C22.3138 16.3748 22.8234 15.9022 22.9508 15.3902L25.5305 5.54499C25.6578 5.03304 25.4668 4.56047 25.0209 4.56047H10.8806L9.67036 1.72504C9.54146 1.39959 9.34243 1.12444 9.09519 0.929887C8.84794 0.735333 8.56208 0.628922 8.26906 0.622371L1.89955 0.622371C1.8042 0.611716 1.70827 0.611716 1.61292 0.622371C1.54928 0.617641 1.48547 0.617641 1.42184 0.622371L1.45368 0.622371ZM11.5175 20.3129C10.6258 20.3129 9.92514 21.1792 9.92514 22.2819C9.92514 23.3846 10.6258 24.251 11.5175 24.251C12.4093 24.251 13.1099 23.3846 13.1099 22.2819C13.1099 21.1792 12.4093 20.3129 11.5175 20.3129ZM21.0718 20.3129C20.1801 20.3129 19.4794 21.1792 19.4794 22.2819C19.4794 23.3846 20.1801 24.251 21.0718 24.251C21.9635 24.251 22.6642 23.3846 22.6642 22.2819C22.6642 21.1792 21.9635 20.3129 21.0718 20.3129Z" fill="black"/>
</svg>
