<svg width="45" height="39" viewBox="0 0 45 39" fill="none" xmlns="http://www.w3.org/2000/svg">
<path d="M3.24761 0.0131848C2.51658 0.151051 1.86196 0.625564 1.42776 1.33234C0.993548 2.03911 0.815323 2.92025 0.932287 3.78191C1.04925 4.64357 1.45182 5.41518 2.05144 5.92698C2.65106 6.43878 3.39861 6.64885 4.12964 6.51099H12.3987L12.8948 8.13544L15.155 16.2577L17.4152 24.3799C17.6357 25.2247 18.5729 26.0044 19.2895 26.0044H38.5839C39.3556 26.0044 40.2377 25.2247 40.4582 24.3799L44.9234 8.13544C45.144 7.29072 44.8132 6.51099 44.0414 6.51099H19.5651L17.4703 1.83257C17.2472 1.29559 16.9027 0.841593 16.4747 0.520582C16.0468 0.199571 15.5519 0.023994 15.0447 0.0131848L4.01939 0.0131848C3.85434 -0.00439493 3.68829 -0.00439494 3.52324 0.0131848C3.41309 0.00538041 3.30264 0.00538041 3.19248 0.0131848L3.24761 0.0131848ZM20.6677 32.5022C19.1241 32.5022 17.9113 33.9317 17.9113 35.7511C17.9113 37.5705 19.1241 39 20.6677 39C22.2112 39 23.424 37.5705 23.424 35.7511C23.424 33.9317 22.2112 32.5022 20.6677 32.5022ZM37.2057 32.5022C35.6621 32.5022 34.4494 33.9317 34.4494 35.7511C34.4494 37.5705 35.6621 39 37.2057 39C38.7492 39 39.962 37.5705 39.962 35.7511C39.962 33.9317 38.7492 32.5022 37.2057 32.5022Z" fill="black"/>
</svg>
