<svg width="45" height="41" viewBox="0 0 45 41" fill="none" xmlns="http://www.w3.org/2000/svg">
<path d="M3.24761 0.435888C2.51658 0.576666 1.86196 1.0612 1.42776 1.7829C0.993548 2.5046 0.815323 3.40435 0.932287 4.28421C1.04925 5.16408 1.45182 5.95198 2.05144 6.47459C2.65106 6.9972 3.39861 7.21171 4.12964 7.07093H12.3987L12.8948 8.7297L15.155 17.0235L17.4152 25.3173C17.6357 26.1799 18.5729 26.9761 19.2895 26.9761H38.5839C39.3556 26.9761 40.2377 26.1799 40.4582 25.3173L44.9234 8.7297C45.144 7.86714 44.8132 7.07093 44.0414 7.07093H19.5651L17.4703 2.2937C17.2472 1.74538 16.9027 1.28179 16.4747 0.954002C16.0468 0.626211 15.5519 0.446925 15.0447 0.435888L4.01939 0.435888C3.85434 0.417937 3.68829 0.417937 3.52324 0.435888C3.41309 0.427918 3.30264 0.427918 3.19248 0.435888L3.24761 0.435888ZM20.6677 33.6111C19.1241 33.6111 17.9113 35.0708 17.9113 36.9286C17.9113 38.7865 19.1241 40.2462 20.6677 40.2462C22.2112 40.2462 23.424 38.7865 23.424 36.9286C23.424 35.0708 22.2112 33.6111 20.6677 33.6111ZM37.2057 33.6111C35.6621 33.6111 34.4494 35.0708 34.4494 36.9286C34.4494 38.7865 35.6621 40.2462 37.2057 40.2462C38.7492 40.2462 39.962 38.7865 39.962 36.9286C39.962 35.0708 38.7492 33.6111 37.2057 33.6111Z" fill="black"/>
</svg>
