<svg width="48" height="39" viewBox="0 0 48 39" fill="none" xmlns="http://www.w3.org/2000/svg">
<path d="M3.39862 0.0131848C2.62799 0.151051 1.93791 0.625564 1.48018 1.33234C1.02245 2.03911 0.834568 2.92025 0.957868 3.78191C1.08117 4.64357 1.50555 5.41518 2.13765 5.92698C2.76976 6.43878 3.5578 6.64885 4.32843 6.51099H13.0454L13.5684 8.13544L15.9511 16.2577L18.3337 24.3799C18.5661 25.2247 19.5541 26.0044 20.3095 26.0044H40.6491C41.4627 26.0044 42.3925 25.2247 42.625 24.3799L47.3322 8.13544C47.5646 7.29072 47.2159 6.51099 46.4023 6.51099H20.6001L18.3918 1.83257C18.1566 1.29559 17.7934 0.841593 17.3423 0.520582C16.8911 0.199571 16.3695 0.023994 15.8348 0.0131848L4.2122 0.0131848C4.03822 -0.00439493 3.86317 -0.00439494 3.68919 0.0131848C3.57306 0.00538041 3.45663 0.00538041 3.34051 0.0131848L3.39862 0.0131848ZM21.7624 32.5022C20.1352 32.5022 18.8567 33.9317 18.8567 35.7511C18.8567 37.5705 20.1352 39 21.7624 39C23.3895 39 24.668 37.5705 24.668 35.7511C24.668 33.9317 23.3895 32.5022 21.7624 32.5022ZM39.1963 32.5022C37.5691 32.5022 36.2907 33.9317 36.2907 35.7511C36.2907 37.5705 37.5691 39 39.1963 39C40.8235 39 42.102 37.5705 42.102 35.7511C42.102 33.9317 40.8235 32.5022 39.1963 32.5022Z" fill="black"/>
</svg>
